#!OML:ASF I:\salsa\salsa 7_09\Patient 1\Session 1\dancermale.ASF
:FULLY-SPECIFIED
:DEGREES
2007
root -6.90966 17.5921 -2.10271 20.093 444.203 -707.716
lowerback -3.59811 -1.64022 2.10809
upperback -2.50501 -2.20947 -1.35561
thorax -0.690286 -1.12777 -2.63541
lowerneck -4.96811 2.22923 4.26131
upperneck 17.2163 3.61488 -4.58095
head 6.18156 1.7959 -1.90327
rclavicle 9.16894e-015 1.55052e-014
rhumerus -55.1633 5.84838 -100.574
rradius 89.4073
rwrist 7.88336
rhand -24.3205 -6.0235
rfingers 7.12502
rthumb 2.16787 -35.9922
lclavicle 9.16894e-015 1.55052e-014
lhumerus -9.61907 -19.062 97.2603
lradius 110.68
lwrist 56.5538
lhand -24.9629 57.9556
lfingers 7.12502
lthumb 1.54738 447.93
rfemur -20.8174 2.75317 13.3766
rtibia 14.527
rfoot -6.16886 -17.5393
rtoes 6.66768
lfemur -12.733 7.34252 -23.9278
ltibia 9.41304
lfoot -12.6251 -7.30568
ltoes -5.3283
2008
root -6.8526 17.5879 -2.03874 22.5879 444.109 -704.964
lowerback -3.5047 -1.81679 1.76355
upperback -2.52118 -2.43365 -1.43735
thorax -0.761419 -1.23687 -2.52806
lowerneck -5.05955 2.51283 4.30341
upperneck 17.2847 3.98879 -4.52401
head 6.23715 1.98188 -1.8641
rclavicle -8.60365e-016 -1.21259e-014
rhumerus -55.6914 5.77713 -100.202
rradius 89.3148
rwrist 8.26405
rhand -24.0532 -5.96402
rfingers 7.12502
rthumb 2.42596 -35.93
lclavicle -8.60365e-016 -1.21259e-014
lhumerus -9.20401 -19.5122 97.8953
lradius 109.649
lwrist 56.7543
lhand -25.0676 57.6635
lfingers 7.12502
lthumb 1.44628 447.638
rfemur -19.5738 3.60792 13.343
rtibia 13.4255
rfoot -6.57185 -18.5722
rtoes 7.50373
lfemur -11.934 7.81881 -23.9195
ltibia 8.90067
lfoot -12.6591 -7.72902
ltoes -5.90395
2009
root -6.79326 17.5805 -1.97468 24.2255 443.964 -703.087
lowerback -3.49616 -1.99771 1.58972
upperback -2.50788 -2.66966 -1.55791
thorax -0.76376 -1.35333 -2.55997
lowerneck -5.10932 2.83982 4.37532
upperneck 17.2592 4.40451 -4.41413
head 6.25747 2.19345 -1.80995
rclavicle -2.15526e-014 3.97569e-015
rhumerus -56.0872 5.82929 -99.9377
rradius 89.2424
rwrist 8.75362
rhand -23.9017 -5.75034
rfingers 7.12502
rthumb 2.57233 -35.7146
lclavicle -2.15526e-014 3.97569e-015
lhumerus -8.64947 -19.8746 98.2654
lradius 108.434
lwrist 57.0489
lhand -25.2167 57.2365
lfingers 7.12502
lthumb 1.30229 447.212
rfemur -18.3508 4.89575 13.2904
rtibia 12.1883
rfoot -6.83432 -19.949
rtoes 7.58404
lfemur -11.2189 8.1547 -23.8379
ltibia 8.547
lfoot -12.7236 -7.98327
ltoes -6.2922
2010
root -6.72829 17.5784 -1.91118 25.3306 443.876 -701.947
lowerback -3.77722 -2.1931 1.58246
upperback -2.53773 -2.92979 -1.66748
thorax -0.658076 -1.48239 -2.6859
lowerneck -5.08768 3.15151 4.44444
upperneck 17.1584 4.80635 -4.35109
head 6.24156 2.39561 -1.77219
rclavicle -3.43711e-014 1.21259e-014
rhumerus -56.4006 5.94916 -99.7467
rradius 89.1683
rwrist 9.2431
rhand -23.9776 -5.46353
rfingers 7.12502
rthumb 2.49903 -35.4286
lclavicle -3.43711e-014 1.21259e-014
lhumerus -8.05514 -20.278 98.4499
lradius 107.15
lwrist 57.5865
lhand -25.4175 56.8765
lfingers 7.12502
lthumb 1.10833 446.853
rfemur -17.3318 5.98091 13.2886
rtibia 10.7462
rfoot -6.42338 -21.0609
rtoes 8.25294
lfemur -10.8569 8.32418 -23.7155
ltibia 8.47973
lfoot -12.8254 -8.15689
ltoes -6.08673
2011
root -6.66484 17.5844 -1.84868 26.6755 443.625 -700.77
lowerback -4.22275 -2.30241 1.58615
upperback -2.65176 -3.07365 -1.82506
thorax -0.544793 -1.55325 -2.87121
lowerneck -4.95287 3.44093 4.78599
upperneck 17.0299 5.17552 -4.42663
head 6.20631 2.59113 -1.82793
rclavicle -7.67029e-015 -1.76918e-014
rhumerus -56.593 5.92926 -99.604
rradius 89.0397
rwrist 9.7788
rhand -24.1011 -5.10785
rfingers 7.12502
rthumb 2.37969 -35.0743
lclavicle -7.67029e-015 -1.76918e-014
lhumerus -7.6623 -20.6572 98.7138
lradius 105.893
lwrist 58.2743
lhand -25.5256 56.736
lfingers 7.12502
lthumb 1.00392 446.713
rfemur -16.7933 6.38292 13.2486
rtibia 9.66675
rfoot -5.87153 -21.4083
rtoes 8.49124
lfemur -10.8945 8.37495 -23.7384
ltibia 8.72181
lfoot -12.9593 -8.05106
ltoes -5.74591
2012
root -6.60926 17.5848 -1.78959 25.7591 443.346 -701.535
lowerback -4.19138 -2.36507 1.80899
upperback -2.71137 -3.16344 -1.94043
thorax -0.648719 -1.60367 -3.11442
lowerneck -5.23352 3.63407 4.27787
upperneck 17.0725 5.41701 -4.03371
head 6.25669 2.6988 -1.59596
rclavicle 2.95789e-014 -1.15295e-014
rhumerus -56.7178 5.83564 -99.4598
rradius 88.9524
rwrist 10.36
rhand -24.4173 -4.7912
rfingers 7.12502
rthumb 2.07437 -34.7609
lclavicle 2.95789e-014 -1.15295e-014
lhumerus -7.53978 -20.7773 99.1986
lradius 104.732
lwrist 58.8135
lhand -25.3593 56.6628
lfingers 7.12502
lthumb 1.16459 446.639
rfemur -16.1903 6.51632 13.5474
rtibia 9.12922
rfoot -5.70119 -21.2587
rtoes 8.4247
lfemur -10.6729 8.11178 -23.49
ltibia 9.14203
lfoot -13.1765 -7.42986
ltoes -5.56354
2013
root -6.55165 17.5829 -1.72342 24.5726 443.013 -702.495
lowerback -4.13803 -2.4161 1.9308
upperback -2.70957 -3.23535 -2.00447
thorax -0.692475 -1.6427 -3.24815
lowerneck -5.44637 3.83883 4.10518
upperneck 17.1011 5.68988 -3.92829
head 6.30738 2.82306 -1.50899
rclavicle 7.02657e-015 3.18055e-015
rhumerus -56.7916 5.75302 -99.1981
rradius 88.9583
rwrist 11.082
rhand -24.9675 -4.58907
rfingers 7.12502
rthumb 1.54292 -34.5632
lclavicle 7.02657e-015 3.18055e-015
lhumerus -7.56479 -20.7142 99.8292
lradius 103.486
lwrist 59.0045
lhand -25.1739 56.4256
lfingers 7.12502
lthumb 1.34362 446.401
rfemur -15.6918 7.03335 13.8883
rtibia 8.99503
rfoot -6.05671 -21.3518
rtoes 8.5807
lfemur -10.4668 7.46676 -23.1991
ltibia 9.78809
lfoot -13.5079 -6.34896
ltoes -5.4527
2014
root -6.4987 17.5924 -1.65944 25.3734 442.545 -701.548
lowerback -4.13388 -2.46725 1.78622
upperback -2.72267 -3.2976 -2.10996
thorax -0.71068 -1.67271 -3.27701
lowerneck -5.60584 4.07562 4.12393
upperneck 17.0264 6.01089 -4.0007
head 6.32839 2.96975 -1.50737
rclavicle 3.43494e-014 2.48481e-014
rhumerus -56.7454 5.73213 -98.8687
rradius 88.9585
rwrist 11.6325
rhand -25.1614 -4.3831
rfingers 7.12502
rthumb 1.35565 -34.3585
lclavicle 3.43494e-014 2.48481e-014
lhumerus -7.65417 -20.595 100.438
lradius 101.969
lwrist 59.0918
lhand -25.2107 55.9927
lfingers 7.12502
lthumb 1.30805 445.968
rfemur -15.4561 7.44755 13.9289
rtibia 9.17539
rfoot -6.51399 -21.378
rtoes 8.47737
lfemur -10.5246 6.68816 -23.3155
ltibia 10.7332
lfoot -13.9627 -5.09256
ltoes -5.71472
2015
root -6.44266 17.5945 -1.57997 24.259 442.11 -702.181
lowerback -3.92157 -2.51982 1.6556
upperback -2.58122 -3.36447 -2.16
thorax -0.683356 -1.70425 -3.25058
lowerneck -5.81672 4.32714 4.022
upperneck 16.9731 6.31631 -3.79637
head 6.35233 3.12045 -1.39773
rclavicle -4.78807e-014 -3.06128e-014
rhumerus -56.5524 5.70736 -98.6698
rradius 88.9526
rwrist 11.8165
rhand -25.0704 -4.12383
rfingers 7.12502
rthumb 1.44359 -34.0987
lclavicle -4.78807e-014 -3.06128e-014
lhumerus -7.82118 -20.3966 100.872
lradius 100.248
lwrist 59.7667
lhand -25.3243 55.3018
lfingers 7.12502
lthumb 1.19838 445.278
rfemur -14.8634 8.07331 14.3021
rtibia 9.3482
rfoot -6.86632 -21.5286
rtoes 8.24791
lfemur -10.3199 5.89778 -23.0673
ltibia 11.9112
lfoot -14.4811 -3.73406
ltoes -6.29271
2016
root -6.39543 17.6037 -1.50859 24.4731 441.536 -701.757
lowerback -3.90612 -2.56705 1.45652
upperback -2.55876 -3.41991 -2.29519
thorax -0.669194 -1.72964 -3.27969
lowerneck -5.85534 4.57156 3.95607
upperneck 16.8424 6.60321 -3.54629
head 6.31957 3.27107 -1.28559
rclavicle 4.27107e-014 1.11319e-014
rhumerus -56.3429 5.6499 -98.6117
rradius 88.9789
rwrist 11.9228
rhand -25.2727 -3.90632
rfingers 7.12502
rthumb 1.24815 -33.8824
lclavicle 4.27107e-014 1.11319e-014
lhumerus -8.17099 -19.9218 101.247
lradius 98.5435
lwrist 61.1906
lhand -25.1157 54.5589
lfingers 7.12502
lthumb 1.3998 444.534
rfemur -14.797 7.99109 14.4209
rtibia 9.81837
rfoot -7.07572 -20.9433
rtoes 8.19417
lfemur -10.6678 5.07714 -23.1555
ltibia 13.5089
lfoot -15.1001 -2.28047
ltoes -7.55516
2017
root -6.34956 17.6033 -1.43012 23.0964 441.081 -702.695
lowerback -3.64276 -2.65279 1.32623
upperback -2.48248 -3.53156 -2.31281
thorax -0.738134 -1.78499 -3.21614
lowerneck -5.7509 4.83601 3.97322
upperneck 16.6283 6.93029 -3.41519
head 6.24316 3.44007 -1.22629
rclavicle 5.94646e-014 1.35174e-014
rhumerus -56.0799 5.63062 -98.5612
rradius 89.0257
rwrist 12.1361
rhand -25.3257 -3.78598
rfingers 7.12502
rthumb 1.19701 -33.7624
lclavicle 5.94646e-014 1.35174e-014
lhumerus -8.59259 -19.2205 101.564
lradius 96.9998
lwrist 62.4398
lhand -24.8056 54.2318
lfingers 7.12502
lthumb 1.69932 444.205
rfemur -14.4587 7.86259 14.8798
rtibia 10.3294
rfoot -7.37115 -20.2157
rtoes 8.50105
lfemur -10.91 4.44006 -22.9056
ltibia 15.4227
lfoot -15.8724 -0.999261
ltoes -8.99443
2018
root -6.3016 17.598 -1.34788 21.8009 440.694 -703.556
lowerback -3.447 -2.74439 1.20771
upperback -2.37914 -3.65168 -2.32779
thorax -0.742339 -1.84371 -3.1605
lowerneck -5.74039 5.09902 4.08524
upperneck 16.5528 7.25559 -3.32313
head 6.2316 3.60983 -1.1911
rclavicle 5.74177e-014 3.10104e-014
rhumerus -55.6859 5.55728 -98.4958
rradius 89.1461
rwrist 12.3976
rhand -24.9396 -3.86639
rfingers 7.12502
rthumb 1.56989 -33.8404
lclavicle 5.74177e-014 3.10104e-014
lhumerus -9.05072 -18.5306 101.758
lradius 95.4179
lwrist 62.4082
lhand -24.6534 54.1719
lfingers 7.12502
lthumb 1.84633 444.144
rfemur -14.0499 7.662 15.3637
rtibia 10.7341
rfoot -7.62793 -19.4781
rtoes 8.18321
lfemur -11.3025 3.9906 -22.6238
ltibia 17.615
lfoot -16.6829 -0.0102683
ltoes -9.74896
2019
root -6.25688 17.5869 -1.26894 20.3792 440.294 -704.582
lowerback -3.23771 -2.80582 1.19686
upperback -2.31782 -3.73484 -2.33907
thorax -0.801479 -1.88621 -3.15805
lowerneck -5.72753 5.33323 4.159
upperneck 16.5241 7.5541 -3.25561
head 6.2328 3.76308 -1.15899
rclavicle 3.50979e-014 1.59028e-015
rhumerus -55.3268 5.5219 -98.4454
rradius 89.3804
rwrist 12.4947
rhand -24.6749 -4.20598
rfingers 7.12502
rthumb 1.8256 -34.1779
lclavicle 3.50979e-014 1.59028e-015
lhumerus -9.55344 -17.7684 101.869
lradius 93.6228
lwrist 61.4085
lhand -24.4275 53.9878
lfingers 7.12502
lthumb 2.06446 443.958
rfemur -13.7294 7.05777 15.8645
rtibia 11.178
rfoot -7.74037 -18.3597
rtoes 6.98475
lfemur -11.9242 3.69068 -22.3526
ltibia 20.0876
lfoot -17.3711 1.02339
ltoes -10.8386
2020
root -6.20804 17.5725 -1.18374 18.9993 440 -705.683
lowerback -3.2605 -2.90742 1.14894
upperback -2.27041 -3.86955 -2.3001
thorax -0.742634 -1.95209 -3.09645
lowerneck -5.46181 5.6161 4.40945
upperneck 16.3118 7.92826 -3.35205
head 6.14909 3.95583 -1.21078
rclavicle 7.29912e-015 1.66979e-014
rhumerus -54.9875 5.58302 -98.4847
rradius 89.6074
rwrist 12.3918
rhand -24.6253 -4.38657
rfingers 7.12502
rthumb 1.87342 -34.3581
lclavicle 7.29912e-015 1.66979e-014
lhumerus -9.95802 -16.8626 101.788
lradius 91.7782
lwrist 61.1822
lhand -24.2905 53.6393
lfingers 7.12502
lthumb 2.19677 443.608
rfemur -13.5286 6.30354 16.4069
rtibia 11.6967
rfoot -7.96821 -17.2176
rtoes 5.94072
lfemur -12.7858 3.41378 -22.0248
ltibia 22.7604
lfoot -17.8373 2.03318
ltoes -11.8283
2021
root -6.16559 17.5426 -1.10161 15.9943 439.797 -708.073
lowerback -2.8668 -2.99239 1.37444
upperback -2.08624 -3.99201 -2.20691
thorax -0.789671 -2.01671 -3.11162
lowerneck -5.25956 5.82242 4.51568
upperneck 15.9748 8.18875 -3.36859
head 6.02414 4.08874 -1.22376
rclavicle 2.56556e-014 2.0276e-014
rhumerus -54.522 5.45663 -98.5279
rradius 89.8076
rwrist 12.4993
rhand -24.6375 -4.56544
rfingers 7.12502
rthumb 1.86172 -34.5371
lclavicle 2.56556e-014 2.0276e-014
lhumerus -10.2259 -15.789 101.598
lradius 90.1198
lwrist 62.3318
lhand -24.2864 53.4314
lfingers 7.12502
lthumb 2.20073 443.4
rfemur -12.9145 5.64171 17.2937
rtibia 12.2029
rfoot -8.32187 -16.1141
rtoes 5.94032
lfemur -13.3088 3.22156 -21.4006
ltibia 25.5282
lfoot -18.1307 2.95674
ltoes -12.4181
